<!--?xml version="1.0" encoding="utf-8"?-->
<!-- Generator: Adobe Illustrator 15.1.0, SVG Export Plug-In . SVG Version: 6.00 Build 0)  -->

<svg version="1.1" id="_x32_" xmlns="http://www.w3.org/2000/svg" xmlns:xlink="http://www.w3.org/1999/xlink" x="0px" y="0px" width="512px" height="512px" viewBox="0 0 512 512" style="enable-background:new 0 0 512 512;" xml:space="preserve">
<style type="text/css">

	.st0{fill:#4B4B4B;}

</style>
<g>
	<path class="st0" d="M147.401,304.609c-24.672,0-44.672,19.984-44.672,44.688c0.016,24.656,19.984,44.641,44.672,44.656
		c24.703-0.016,44.672-20,44.688-44.656c0-12.328-5.016-23.547-13.094-31.609C170.948,309.625,159.698,304.594,147.401,304.609z
		 M147.401,373.234c-13.234-0.031-23.922-10.734-23.953-23.938c0.031-13.266,10.719-23.938,23.953-23.953
		c13.25,0,23.953,10.688,23.953,23.953C171.339,362.5,160.636,373.203,147.401,373.234z"></path>
	<path class="st0" d="M388.761,304.609c-24.656,0-44.672,19.969-44.672,44.688c0,24.656,20,44.641,44.672,44.656
		c24.688-0.016,44.656-20,44.672-44.656C433.433,324.594,413.433,304.609,388.761,304.609z M388.761,373.234
		c-13.219-0.031-23.938-10.75-23.953-23.938c0.016-13.25,10.719-23.938,23.953-23.953c13.25,0.016,23.922,10.688,23.938,23.953
		C412.683,362.5,401.995,373.203,388.761,373.234z"></path>
	<path class="st0" d="M147.401,340.5c-4.828,0-8.766,3.922-8.766,8.797c0,4.844,3.938,8.781,8.766,8.781
		c4.844,0,8.781-3.938,8.781-8.781C156.183,344.422,152.245,340.5,147.401,340.5z"></path>
	<path class="st0" d="M388.761,340.5c-4.844,0-8.781,3.922-8.781,8.797c0,4.844,3.938,8.781,8.781,8.781
		c4.828,0,8.766-3.938,8.766-8.781C397.526,344.422,393.589,340.5,388.761,340.5z"></path>
	<path class="st0" d="M288.558,122.328c-0.109-2.391-2.594-4.281-5.625-4.281h-19.406c-3.016,0-5.516,1.891-5.625,4.281
		l-1.203,26.141h33.078L288.558,122.328z"></path>
	<rect x="252.386" y="155.219" class="st0" width="41.688" height="9.688"></rect>
	<path class="st0" d="M508.12,250.172c-3.125-3.719-7.766-5.891-12.656-5.891h-70.984l-35.953-62.563
		c-3.703-6.406-10.531-10.375-17.938-10.375H195.011c-6.359,0-12.359,2.938-16.281,7.938l-44.625,57.063
		c-3.922,5.016-9.922,7.938-16.281,7.938H16.542c-4.859,0-9.453,2.141-12.609,5.828c-3.125,3.688-4.5,8.578-3.719,13.375
		l17.172,66.875c2.344,9.172,10.594,15.547,20.063,15.547l55.281-0.125c1.844-28.688,25.531-51.531,54.672-51.531
		c14.734,0,28.547,5.734,38.938,16.109c9.5,9.469,14.844,21.891,15.734,35.188l132.063-0.344
		c2.141-28.406,25.688-50.953,54.625-50.953c28.859,0,52.344,22.406,54.594,50.703l41.109-0.094
		c10.547-0.016,19.359-7.953,20.516-18.438l6.766-62.75C512.604,258.875,511.276,253.922,508.12,250.172z M63.214,289.359H33.729
		l-6.328-25.297h35.813V289.359z M154.183,247.672l41.859-53.531h86.969v53.531H154.183z M315.386,330.797h-95.531v-63.219h95.531
		V330.797z M310.214,247.672v-53.531h59.156l30.75,53.531H310.214z"></path>
	<path class="st0" d="M256.073,304.141c0.797,0.781,1.172,1.906,0.984,3.016l-1.297,7.547c-0.219,1.266,0.313,2.563,1.359,3.328
		s2.438,0.859,3.578,0.25l6.781-3.547c0.984-0.516,2.172-0.516,3.172,0l6.766,3.547c1.141,0.609,2.547,0.516,3.594-0.25
		s1.563-2.063,1.359-3.328l-1.297-7.547c-0.188-1.109,0.172-2.234,0.969-3.016l5.484-5.328c0.922-0.906,1.266-2.266,0.859-3.5
		s-1.469-2.125-2.75-2.313l-7.563-1.109c-1.109-0.156-2.078-0.859-2.578-1.859l-3.375-6.859c-0.578-1.172-1.766-1.906-3.063-1.906
		s-2.484,0.734-3.047,1.906l-3.391,6.859c-0.5,1-1.453,1.703-2.563,1.859L252.479,293c-1.281,0.188-2.344,1.078-2.75,2.313
		c-0.391,1.234-0.063,2.594,0.859,3.5L256.073,304.141z"></path>
</g>
</svg>
